<svg width="46" height="32" viewBox="0 0 46 32" fill="none" xmlns="http://www.w3.org/2000/svg">
<path d="M22.9167 9.375C24.5743 9.375 26.164 10.0335 27.3361 11.2056C28.5082 12.3777 29.1667 13.9674 29.1667 15.625C29.1667 17.2826 28.5082 18.8723 27.3361 20.0444C26.164 21.2165 24.5743 21.875 22.9167 21.875C21.2591 21.875 19.6694 21.2165 18.4972 20.0444C17.3251 18.8723 16.6667 17.2826 16.6667 15.625C16.6667 13.9674 17.3251 12.3777 18.4972 11.2056C19.6694 10.0335 21.2591 9.375 22.9167 9.375ZM22.9167 0C33.3333 0 42.2292 6.47917 45.8333 15.625C42.2292 24.7708 33.3333 31.25 22.9167 31.25C12.5 31.25 3.60417 24.7708 0 15.625C3.60417 6.47917 12.5 0 22.9167 0ZM4.54167 15.625C6.22553 19.0631 8.84022 21.9599 12.0885 23.9859C15.3368 26.012 19.0883 27.0861 22.9167 27.0861C26.745 27.0861 30.4966 26.012 33.7448 23.9859C36.9931 21.9599 39.6078 19.0631 41.2917 15.625C39.6078 12.1869 36.9931 9.29011 33.7448 7.26405C30.4966 5.238 26.745 4.16392 22.9167 4.16392C19.0883 4.16392 15.3368 5.238 12.0885 7.26405C8.84022 9.29011 6.22553 12.1869 4.54167 15.625Z" fill="#2C6E49"/>
</svg>
