<svg width="60" height="60" viewBox="0 0 60 60" fill="none" xmlns="http://www.w3.org/2000/svg">
<mask id="path-1-inside-1_11_187" fill="white">
<path d="M0 0H60V60H0V0Z"/>
</mask>
<path d="M0 0H60V60H0V0Z" fill="#F6FFF8"/>
<path d="M0 0V-3H-3V0H0ZM60 0H63V-3H60V0ZM60 60V63H63V60H60ZM0 60H-3V63H0V60ZM0 3H60V-3H0V3ZM57 0V60H63V0H57ZM60 57H0V63H60V57ZM3 60V0H-3V60H3Z" fill="#2C6E49" mask="url(#path-1-inside-1_11_187)"/>
<path d="M30 23.75C31.6576 23.75 33.2473 24.4085 34.4194 25.5806C35.5915 26.7527 36.25 28.3424 36.25 30C36.25 31.6576 35.5915 33.2473 34.4194 34.4194C33.2473 35.5915 31.6576 36.25 30 36.25C28.3424 36.25 26.7527 35.5915 25.5806 34.4194C24.4085 33.2473 23.75 31.6576 23.75 30C23.75 28.3424 24.4085 26.7527 25.5806 25.5806C26.7527 24.4085 28.3424 23.75 30 23.75ZM30 14.375C40.4166 14.375 49.3125 20.8542 52.9166 30C49.3125 39.1458 40.4166 45.625 30 45.625C19.5833 45.625 10.6875 39.1458 7.08331 30C10.6875 20.8542 19.5833 14.375 30 14.375ZM11.625 30C13.3088 33.4381 15.9235 36.3349 19.1718 38.3609C22.4201 40.387 26.1716 41.4611 30 41.4611C33.8283 41.4611 37.5799 40.387 40.8282 38.3609C44.0764 36.3349 46.6911 33.4381 48.375 30C46.6911 26.5619 44.0764 23.6651 40.8282 21.6391C37.5799 19.613 33.8283 18.5389 30 18.5389C26.1716 18.5389 22.4201 19.613 19.1718 21.6391C15.9235 23.6651 13.3088 26.5619 11.625 30Z" fill="#2C6E49"/>
</svg>
